/* XPM */
static char *simplegazetracker[] = {
/* columns rows colors chars-per-pixel */
"32 32 131 2 ",
"   c #2F2827",
".  c #332C2B",
"X  c #37302F",
"o  c #494241",
"O  c #4F4948",
"+  c #514B4A",
"@  c #5F5958",
"#  c #605A59",
"$  c #666060",
"%  c #6D6867",
"&  c #6E6968",
"*  c #75706F",
"=  c #786B7E",
"-  c #8C7B73",
";  c #84747B",
":  c #817D7D",
">  c #8D7D79",
",  c #92847B",
"<  c #B0986C",
"1  c #A48D75",
"2  c #A69176",
"3  c #AB9474",
"4  c #B39A72",
"5  c #B99F71",
"6  c #BFA16F",
"7  c #BFA771",
"8  c #BFA872",
"9  c #CDAE67",
"0  c #C6A76D",
"q  c #CCAC6D",
"w  c #D6B46A",
"e  c #D8B66A",
"r  c #DBB96B",
"t  c #C0A670",
"y  c #C1A971",
"u  c #CFB270",
"i  c #D1B470",
"p  c #DCBC71",
"a  c #DFC27D",
"s  c #E1C070",
"d  c #1C5DB0",
"f  c #205CAD",
"g  c #1D61B2",
"h  c #146EBF",
"j  c #1E75BD",
"k  c #2B66AB",
"l  c #2D6EAF",
"z  c #3C6DA5",
"x  c #3970A9",
"c  c #2263B0",
"v  c #2674B7",
"b  c #4A578F",
"n  c #515E8F",
"m  c #5A628B",
"M  c #5B7193",
"N  c #706F84",
"B  c #61718F",
"V  c #68768D",
"C  c #737787",
"Z  c #7A7C85",
"A  c #727788",
"S  c #0F77C7",
"D  c #0F7ECB",
"F  c #1473C2",
"G  c #1B79C1",
"H  c #827E81",
"J  c #0D82CF",
"K  c #0C84D1",
"L  c #088ED9",
"P  c #0590DC",
"I  c #0295E1",
"U  c #009BE5",
"Y  c #009FE8",
"T  c #00A4EB",
"R  c #868382",
"E  c #8A8686",
"W  c #8D8A8A",
"Q  c #959393",
"!  c #999697",
"~  c #9C9A9A",
"^  c #A09E9E",
"/  c #A19FA0",
"(  c #A4A2A2",
")  c #A9A6A7",
"_  c #AAA6A9",
"`  c #ADABAB",
"'  c #B4AEA4",
"]  c #B6B0A4",
"[  c #B6B1A9",
"{  c #B9B4AC",
"}  c #ABAAB4",
"|  c #B3AEB2",
" . c #B5B3B4",
".. c #B8B7B7",
"X. c #B8B7B8",
"o. c #BDBCBD",
"O. c #CBBFA3",
"+. c #C0BFBF",
"@. c #E1C583",
"#. c #DFD1B1",
"$. c #EBD9AE",
"%. c #EDDCB4",
"&. c #BFBFC0",
"*. c #C0BFC0",
"=. c #C3C3C4",
"-. c #C8C7C7",
";. c #C7C7C8",
":. c #CBCBCC",
">. c #D0CFCE",
",. c #D1D0CF",
"<. c #CFCFD0",
"1. c #D3D3D4",
"2. c #D9D7D7",
"3. c #D9D8D7",
"4. c #D7D7D8",
"5. c #DBDADB",
"6. c #EFE2C3",
"7. c #F0E3C5",
"8. c #F1E5C8",
"9. c #F1E9D6",
"0. c #F5EDD9",
"q. c #DFDFE0",
"w. c #E3E2E3",
"e. c #ECECEB",
"r. c #F8F3E6",
"t. c #F6F3EC",
"y. c #FAF6EC",
"u. c #F4F3F3",
"i. c #FBF7F0",
"p. c #FDFDFD",
"a. c None",
/* pixels */
"a.a.a.1.5.q.5.5.5.5.5.5.5.4.4.4.4.4.4.4.2.1.1.3.4.1.4.<.:.a.a.a.",
"a.a.4.w.w.w.w.w.w.w.w.w.w.w.q.q.w.q.q.5.q.5.5.5.5.5.4.3.4.>.a.a.",
"a.4.w.w.w.w.w.w.w.w.w.w.q.w.5.q.w.5.5.q.5.q.5.5.5.3.3.3.4.4.>.a.",
",.w.q.4.4.4.4.4.,.4.,.,.,.<.,.,.>.:.>.>.:.:.:.:.:.:.:.:.:.<.1.;.",
"4.w.=.1.4.4.4.5.3.3.O.y t t 7 7 7 7 8 y 8 , 3 t 8 7 O.4.,.X.1.>.",
"4.w.-.p.p.p.p.p.p.r.a r r r r r r e 0 , V b N 3 e r @.r.p.+.<.>.",
"5.w.-.u.p.p.p.p.p.$.r r e r r r r 2 z K I h D j C q e $.p.&.,.<.",
"4.q.-.p.p.p.p.p.i.@.r e r r r r 4 l U T T F L T J C w @.t.=.<.:.",
"4.q.-.p.p.p.p.p.0.p r r r e r w M I T T T F L T T j 3 s 9.o.<.>.",
"4.w.-.u.p.p.p.p.8.r r r r r s t v T T T T F L T T P Z r 6.=.>.:.",
"4.5.-.u.p.p.p.p.6.e r r 4 1 2 ; c D D D D d h D D S n 1 _ } >.;.",
"4.5.=.p.p.p.p.p.8.r r r 5 2 3 > c J J J J g F J J S m 3 | } :.:.",
"2.5.=.u.p.p.p.p.0.p r r r r r q x Y T T T F L T T J E s 0.&.:.;.",
"4.5.=.p.p.p.p.p.i.@.e r r r r r H J T T T F L T U z 0 @.t.&.:.;.",
"4.5.=.u.p.p.p.p.p.$.e e r r r r q B J Y T F L I l 3 r $.p.o.:.;.",
",.4.=.p.p.p.p.p.p.r.a e r r r r r q H x G f k B 4 r a r.u.X.:.;.",
",.4.=.p.p.p.p.p.p.p.6.p r r r e r r r q 4 = 3 e r r 7.p.p.X.:.-.",
"1.2.*.u.p.p.p.p.p.p.p.%.p r r r r r r r r , 6 r p %.p.p.p.X.-.=.",
",.4.o.e.e.e.e.e.e.e.e.e.#.u 9 9 9 9 q q 9 - < i #.e.e.e.e. .-.=.",
",.4.=.+.*.=.&.&.o.=.+.+.o.{ ] ] ] ] ] ] ] ) ' [ X.X.X.X. .X.;.=.",
"1.4.4.1.1.1.1.1.>. .)  .:.<.<.<.>.>.<.;. .( | =.:.;.;.;.;.;.;.=.",
"<.1.1.1.1.1.1.&.E ^  .~ W o.<.<.:.:.X.E ~  .~ E X.;.;.;.-.=.=.=.",
"<.1.1.1.1.,.:.E 1.p.p.e.| R ;.:.:.-.E :.p.p.u. .Z +.;.;.;.=.=.=.",
"<.1.1.<.,.,.) ` p.p.w.$ o + _ :.:._ ( p.p.e.% o O ^ ;.=.=.=.=.&.",
":.1.1.<.<.1.! ;.p.p.o..   X ! >.:.~ +.p.p.:.X   . W ;.=.=.=.=.&.",
":.<.<.<.<.1.~ ..p.p.w.& + # ( :.:.( ` p.p.e.* O @ ! =.=.=.&.=.&.",
":.<.<.:.<.<.o.W e.p.p.u.:.R o.:.:.X.E w.p.p.i.1.R  .=.=.=.&.&.&.",
":.<.<.>.:.:.>.) W &.4.o.E ` :.-.-.;.) R o.4.*.E ^ =.=.&.&.&.&.o.",
"=.<.:.:.:.:.:.:.X.! W ! X.;.;.;.-.;.-. .Q W Q } =.&.&.&.&.&.&.o.",
"a.;.:.:.:.:.:.:.;.:.:.:.;.;.=.;.=.=.=.=.;.=.=.=.&.=.&.&.&.&.o.a.",
"a.a.;.:.:.;.;.;.;.;.;.;.;.;.=.;.=.=.=.=.=.&.&.&.&.&.&.&.o.o.a.a.",
"a.a.a.&.;.;.;.;.=.=.=.=.=.=.=.&.=.=.&.&.&.&.&.&.&.&.o.o.X.a.a.a."
};
