/* XPM */
static char *gazeparser_viewer[] = {
/* columns rows colors chars-per-pixel */
"32 32 83 1 ",
"  c #2F2827",
". c #332C2B",
"X c #37302F",
"o c #494241",
"O c #4F4948",
"+ c #514B4A",
"@ c #5F5958",
"# c #605A59",
"$ c #666060",
"% c #6D6867",
"& c #6E6968",
"* c #75706F",
"= c #817D7D",
"- c #72AF85",
"; c #868382",
": c #8A8686",
"> c #8D8A8A",
", c #959393",
"< c #999697",
"1 c #9C9A9A",
"2 c #A09E9E",
"3 c #A19FA0",
"4 c #9BBAA5",
"5 c #A4A2A2",
"6 c #A8A6A6",
"7 c #A9A7A8",
"8 c #ADABAB",
"9 c #A6B3AA",
"0 c #B0AFB0",
"q c #B5B3B4",
"w c #B8B6B7",
"e c #B2BBB4",
"r c #B8B7B8",
"t c #BDBCBD",
"y c #C0BFBF",
"u c #94C5A4",
"i c #98C6A7",
"p c #9BC7A9",
"a c #9CC9AA",
"s c #A1CBAF",
"d c #A3CDB0",
"f c #A8CFB4",
"g c #BDC0BD",
"h c #A9D0B5",
"j c #AED2BA",
"k c #B3D4BD",
"l c #BFBFC0",
"z c #C0BFC0",
"x c #B7D7C2",
"c c #BAD9C4",
"v c #BFDBC8",
"b c #C3C3C4",
"n c #C8C7C7",
"m c #C7C7C8",
"M c #C7CDC8",
"N c #CBCBCC",
"B c #CCD0CD",
"V c #C3DECC",
"C c #CADACF",
"Z c #CFCFD0",
"A c #D0CFD0",
"S c #D3D3D4",
"D c #D8D7D7",
"F c #D9D8D7",
"G c #D7D7D8",
"H c #DBDADB",
"J c #CDE2D4",
"K c #D3E6D9",
"L c #D6E8DC",
"P c #DFDFE0",
"I c #DDECE2",
"U c #E3E2E3",
"Y c #E2EFE6",
"T c #E6EFE9",
"R c #EDEDED",
"E c #F0EFEF",
"W c #EAF3ED",
"Q c #F0EFF0",
"! c #EFF6F1",
"~ c #F3F5F4",
"^ c #F5F8F6",
"/ c #FEFEFE",
"( c None",
/* pixels */
"(((SHPHPHHHHHHFFFGGGFFSGSSSSN(((",
"((HUUUUUUUUUUUPPPPPPPHHHHHHFGB((",
"(FUUUUUUUUUUPUPPPPHPHHHHHHFGFGZ(",
"AUHGFSSGSSAAAAZZZZZNZNNNNNNNNZSm",
"HUzSHFFFFFFFFFFFSFFFFSSMSSNFSrSN",
"HUn///////////////////WihjdVceSZ",
"HUn^//////////////////LsVWIaJeSZ",
"FUn^//////////////////cI///^^tZZ",
"FPn^/////////////////^k!////^yAZ",
"FPn^/////////////////Wk//////yZn",
"FHn^/////////////////LV/////^tNN",
"GHtREREERQREREREREEEEkCEERERRtNN",
"GHz^T^/^^!/^^/^L^/^/^jW/^/^/~tNn",
"GHb^pVK!jj////LpcY^vkk^//////tZn",
"SHzJdddixkchLLjTLxfcuC//////^tnm",
"SH8-x^~I/^KJius^//^/W^///////tnm",
"SG4iK///////YWW/////////////^tnm",
"SFgQ/////////////////////////tmn",
"AFtRRRRRRRRRRRRRRRRRRRRRRRRRUqnb",
"ZFmttbtbtbzytttttttttttwtwwwrwmb",
"ZGGSSSSSNq7qNAAANZNN050mNNmmNmmb",
"ZSSSSSSt>2q1>tZNNNt;1q2;qmmmmbbb",
"BSSSSAN;S//R0;NNNm;N//Eq*bmmbmbl",
"BSSSAA78//U$o+7NN75//R&o+5mmbbbl",
"BSSSNS<m//t...<NN1y//mX .>bbbbbl",
"NSNSSZ2q//U&+#5NN58//R*O@<bbbbll",
"NSNZNSl:R//~N;tNNt;U//~S;qbbblll",
"NNNZNNN6;bSt:8Nnmm7;ySb:3bbbllll",
"lNNNNNNNw,><wmmmmmm0,>,8bblllllr",
"(NNNNNNNNNNNmmmmbbbmbbbblllllll(",
"((NNNNNNmNmmmmbbbbbbbblllllllt((",
"(((lbmblbbbbblblbbltlllltlttt((("
};
